<svg width="599" height="217" viewBox="0 0 599 217" fill="none" xmlns="http://www.w3.org/2000/svg">
<g clip-path="url(#clip0)">
<g clip-path="url(#clip1)">
<path d="M572.481 182.095C570.134 178.803 567.641 175.618 565.002 172.54C551.65 156.916 535.024 144.421 516.303 135.941C511.188 133.622 505.936 131.618 500.576 129.941C496.855 128.774 493.069 127.768 489.22 126.923L481.958 125.5C463.668 122.44 444.953 123.043 426.899 127.273C408.844 131.504 391.81 139.278 376.784 150.144C373.173 149.705 369.518 149.411 365.82 149.264C365.679 148.877 365.533 148.489 365.382 148.097C364.148 144.831 362.825 141.613 361.414 138.441C353.53 120.677 342.944 104.241 330.031 89.7162C329.437 89.0524 328.844 88.3885 328.24 87.7347C319.635 78.3243 310.105 69.8036 299.794 62.3012C267.742 39.0208 229.145 26.4792 189.531 26.472H189.264C186.327 26.472 183.408 26.5408 180.508 26.6783L169.308 27.5232C168.387 27.6187 167.467 27.7193 166.551 27.835L155.23 29.545C152.233 30.0882 149.26 30.7068 146.313 31.4008C106.258 40.8279 70.3824 63.0902 44.1519 94.7959C40.9734 98.6283 37.9557 102.59 35.0991 106.68C33.7361 108.622 32.4084 110.578 31.1259 112.57C30.5073 113.525 29.8987 114.481 29.2952 115.446C27.3036 118.635 25.4159 121.886 23.6321 125.198C21.731 128.709 19.9406 132.283 18.2608 135.921C18.2453 135.95 18.2318 135.98 18.2205 136.011C12.8264 147.702 8.6583 159.92 5.78293 172.469V172.469C5.02182 175.769 4.35124 179.098 3.77119 182.458C3.54319 183.745 3.33196 185.036 3.13749 186.33L3.07713 186.763C2.5742 190.283 2.12659 193.804 1.79968 197.39L1.36212 197.43C1.39733 197.536 1.43253 197.641 1.45768 197.752C1.5522 197.809 1.64956 197.861 1.74938 197.908C1.70915 198.365 1.67394 198.823 1.63874 199.276C1.66405 199.682 1.63188 200.09 1.54318 200.488C1.18107 205.182 1.00001 209.933 1.00001 214.741C0.950018 245.126 8.29278 275.066 22.3949 301.98L22.591 302.352C36.8751 329.435 57.5243 352.642 82.7623 369.977C102.83 383.797 125.403 393.564 149.215 398.73L153.375 399.58C159.121 400.693 164.96 401.531 170.892 402.095C176.927 402.678 183.051 402.971 189.264 402.975C197.899 402.978 206.525 402.39 215.08 401.215H436.568L438.368 401.491C465.485 405.49 493.179 401.426 518.003 389.804C542.827 378.181 563.685 359.515 577.979 336.127C592.274 312.74 599.374 285.665 598.397 258.272C597.419 230.879 588.407 204.379 572.481 182.07V182.095Z" fill="url(#paint0_linear)"/>
<path opacity="0.3" d="M498.404 285.122C498.379 283.477 498.323 281.853 498.233 280.223C498.125 278.178 497.976 276.141 497.785 274.113C497.234 268.361 496.322 262.65 495.054 257.013C494.999 256.761 494.938 256.51 494.878 256.253C493.872 251.911 492.67 247.648 491.272 243.464C490.327 240.654 489.295 237.896 488.179 235.19C487.783 234.215 487.374 233.251 486.952 232.299C485.007 227.826 482.825 223.461 480.414 219.222V219.222L480.097 218.669C479.368 217.402 478.588 216.154 477.844 214.892L477.537 214.389C477.391 214.153 477.245 213.951 477.119 213.725V213.695C476.134 212.129 475.118 210.588 474.072 209.073C470.788 204.311 467.21 199.759 463.359 195.443V195.443C457.684 189.09 451.44 183.268 444.705 178.052C444.705 178.052 444.705 178.052 444.705 178.052C443.03 176.769 441.336 175.512 439.6 174.295C420.996 161.2 399.433 152.926 376.844 150.214C373.233 149.775 369.578 149.482 365.88 149.334C364.97 149.294 364.059 149.269 363.149 149.254C362.143 149.224 361.137 149.219 360.131 149.219C354.226 149.218 348.327 149.591 342.468 150.335C332.685 151.585 323.064 153.882 313.771 157.185C301.597 136.243 284.14 118.863 263.144 106.78C242.149 94.6981 218.351 88.3372 194.127 88.3331C189.195 88.3291 184.265 88.5927 179.361 89.1227C178.818 89.168 178.275 89.2334 177.732 89.2988C171.081 90.0839 164.497 91.353 158.032 93.0959C156.11 89.9375 154.064 86.8444 151.896 83.852C149.728 80.8595 147.525 78.0229 145.172 75.2568C143.16 72.9098 141.084 70.6264 138.945 68.4068C138.879 68.3327 138.808 68.2622 138.734 68.1956C135.395 64.7692 131.88 61.5192 128.203 58.4587C126.241 56.8192 124.234 55.2299 122.167 53.711C119.582 51.7798 116.928 49.9457 114.206 48.2089C112.295 46.9817 110.353 45.8082 108.382 44.6884C83.5878 56.5294 61.6699 73.6281 44.1519 94.7959C40.9734 98.6282 37.9557 102.59 35.0991 106.68C33.7361 108.622 32.4084 110.578 31.1259 112.57C30.5073 113.525 29.8987 114.481 29.2952 115.446C27.3036 118.635 25.4159 121.886 23.6321 125.198C21.731 128.709 19.9406 132.283 18.2608 135.921C18.2453 135.95 18.2318 135.98 18.2205 136.011C12.8264 147.702 8.6583 159.92 5.78293 172.469V172.469C5.02182 175.769 4.35124 179.098 3.77119 182.458C3.54319 183.745 3.33196 185.036 3.13749 186.33L3.07713 186.763C2.5742 190.283 2.12659 193.804 1.79968 197.39L1.36212 197.43C1.39733 197.536 1.43253 197.641 1.45768 197.752C1.5522 197.809 1.64956 197.861 1.74938 197.908C1.70915 198.365 1.67394 198.823 1.63874 199.276C1.66405 199.682 1.63188 200.09 1.54318 200.488C1.18107 205.182 1.00001 209.933 1.00001 214.741C0.950018 245.126 8.29278 275.066 22.3949 301.98C22.5609 302.005 22.7319 302.031 22.8978 302.046C40.6131 304.205 58.5785 302.931 75.8117 298.294C77.3809 300.882 79.0339 303.414 80.7707 305.888C82.0548 307.726 83.3826 309.526 84.7539 311.29C96.1419 325.984 110.362 338.245 126.573 347.345C127.282 347.748 128.001 348.135 128.721 348.522C135.186 352.001 141.922 354.951 148.863 357.344C151.546 358.279 154.28 359.132 157.066 359.903C157.222 359.944 157.378 359.994 157.534 360.029C166.27 362.416 175.22 363.932 184.255 364.556C187.514 364.794 190.803 364.913 194.122 364.913C201.592 364.912 209.049 364.314 216.423 363.122C221.027 362.372 225.589 361.387 230.092 360.17V360.17C233.613 359.228 237.075 358.15 240.478 356.936C241.434 358.576 242.421 360.192 243.44 361.784C246.914 367.242 250.771 372.445 254.983 377.355C257.092 379.83 259.289 382.225 261.576 384.542C267.654 390.715 274.297 396.305 281.417 401.24H436.568L438.368 401.516C445.64 396.518 452.421 390.841 458.621 384.562C478.441 364.475 491.624 338.792 496.392 310.978C496.851 308.296 497.232 305.603 497.534 302.901C498.107 297.786 498.398 292.643 498.404 287.496C498.404 286.691 498.404 285.907 498.404 285.122Z" fill="#00BFA6"/>
<path d="M598.488 263.289C598.47 287.896 591.965 312.064 579.629 333.355C567.293 354.646 549.562 372.309 528.223 384.562H255.903C255.568 382.165 255.264 379.769 254.993 377.375C254.777 375.585 254.575 373.799 254.384 372.009C254.052 368.901 253.761 365.768 253.534 362.609C252.327 345.7 253.031 328.41 259.771 313.276C260.622 311.339 261.575 309.449 262.627 307.613C264.185 304.909 265.941 302.325 267.883 299.883C269.605 297.726 271.452 295.672 273.415 293.732C276.054 291.135 278.861 288.716 281.819 286.49C283.233 285.419 284.686 284.377 286.165 283.377L286.436 283.196C294.016 278.096 302.354 273.921 310.753 270.361L312.493 269.636L312.946 269.45C313.766 269.108 314.586 268.781 315.405 268.444L315.732 268.314C320.162 266.55 324.623 264.914 329.116 263.405C336.747 260.833 344.487 258.622 352.336 256.771C354.287 256.309 356.246 255.871 358.21 255.459C360.111 255.053 362.018 254.671 363.929 254.312C368.157 253.507 372.402 252.81 376.663 252.22C377.106 252.159 377.543 252.099 377.986 252.049L380.772 251.682L381.275 251.621C382.075 251.521 382.879 251.43 383.684 251.34C386.968 250.962 390.257 250.641 393.547 250.334C393.677 250.334 393.803 250.334 393.929 250.289H393.959C397.443 249.993 400.93 249.719 404.42 249.464L406.864 249.283L408.876 249.142C412.859 248.86 416.843 248.579 420.826 248.297C424.055 248.05 427.279 247.794 430.502 247.507C431.051 247.462 431.594 247.417 432.142 247.361L433.253 247.256C433.355 247.253 433.455 247.243 433.555 247.226H433.696L435.562 247.04C435.599 247.037 435.636 247.037 435.673 247.04V247.04C436.211 246.989 436.739 246.934 437.272 246.874C441.547 246.431 445.822 245.908 450.067 245.269L451.364 245.078C458.724 243.951 466.008 242.375 473.176 240.361C474.813 239.895 476.439 239.402 478.055 238.882C479.909 238.282 481.753 237.645 483.587 236.971L484.362 236.684C485.639 236.181 486.907 235.678 488.164 235.175C489.995 234.421 491.805 233.611 493.586 232.761L493.817 232.656C495.936 231.65 498.015 230.57 500.053 229.417C500.999 228.884 501.939 228.33 502.865 227.762C507.556 224.936 511.978 221.683 516.072 218.045C516.384 217.764 516.69 217.487 516.992 217.205L517.093 217.115C521.09 213.321 524.856 209.29 528.369 205.044C533.368 199.17 538.206 193.13 543.723 187.753C545.333 186.184 547.009 184.675 548.753 183.227C550.764 181.567 552.816 180.003 554.949 178.535L555.266 178.313C558.387 176.173 561.639 174.23 565.003 172.494C567.635 175.569 570.127 178.754 572.481 182.05C589.448 205.736 598.546 234.154 598.488 263.289V263.289Z" fill="#00BFA6"/>
<path opacity="0.2" d="M598.488 263.289C598.47 287.896 591.965 312.064 579.629 333.355C567.293 354.646 549.562 372.309 528.223 384.562H255.903C255.568 382.165 255.264 379.769 254.993 377.375C254.777 375.585 254.575 373.799 254.384 372.009C254.052 368.901 253.761 365.768 253.534 362.609C252.327 345.7 253.031 328.41 259.771 313.276C260.622 311.339 261.575 309.449 262.627 307.613C264.185 304.909 265.941 302.325 267.883 299.883C269.605 297.726 271.452 295.672 273.415 293.732C276.054 291.135 278.861 288.716 281.819 286.49C283.233 285.419 284.686 284.377 286.165 283.377L286.436 283.196C294.016 278.096 302.354 273.921 310.753 270.361L312.493 269.636L312.946 269.45C313.766 269.108 314.586 268.781 315.405 268.444L315.732 268.314C320.162 266.55 324.623 264.914 329.116 263.405C336.747 260.833 344.487 258.622 352.336 256.771C354.287 256.309 356.246 255.871 358.21 255.459C360.111 255.053 362.018 254.671 363.929 254.312C368.157 253.507 372.402 252.81 376.663 252.22C377.106 252.159 377.543 252.099 377.986 252.049L380.772 251.682L381.275 251.621C382.075 251.521 382.879 251.43 383.684 251.34C386.968 250.962 390.257 250.641 393.547 250.334C393.677 250.334 393.803 250.334 393.929 250.289H393.959C397.443 249.993 400.93 249.719 404.42 249.464L406.864 249.283L408.876 249.142C412.859 248.86 416.843 248.579 420.826 248.297C424.055 248.05 427.279 247.794 430.502 247.507C431.051 247.462 431.594 247.417 432.142 247.361L433.253 247.256C433.355 247.253 433.455 247.243 433.555 247.226H433.696L435.562 247.04C435.599 247.037 435.636 247.037 435.673 247.04V247.04C436.211 246.989 436.739 246.934 437.272 246.874C441.547 246.431 445.822 245.908 450.067 245.269L451.364 245.078C458.724 243.951 466.008 242.375 473.176 240.361C474.813 239.895 476.439 239.402 478.055 238.882C479.909 238.282 481.753 237.645 483.587 236.971L484.362 236.684C485.639 236.181 486.907 235.678 488.164 235.175C489.995 234.421 491.805 233.611 493.586 232.761L493.817 232.656C495.936 231.65 498.015 230.57 500.053 229.417C500.999 228.884 501.939 228.33 502.865 227.762C507.556 224.936 511.978 221.683 516.072 218.045C516.384 217.764 516.69 217.487 516.992 217.205L517.093 217.115C521.09 213.321 524.856 209.29 528.369 205.044C533.368 199.17 538.206 193.13 543.723 187.753C545.333 186.184 547.009 184.675 548.753 183.227C550.764 181.567 552.816 180.003 554.949 178.535L555.266 178.313C558.387 176.173 561.639 174.23 565.003 172.494C567.635 175.569 570.127 178.754 572.481 182.05C589.448 205.736 598.546 234.154 598.488 263.289V263.289Z" fill="black"/>
<path d="M110.414 200.93C110.783 200.451 111.119 199.947 111.42 199.422L104.268 198.25L112.003 198.305C112.744 196.69 113.147 194.941 113.19 193.165C113.232 191.389 112.912 189.623 112.249 187.975L101.869 193.356L111.425 186.315C110.53 184.763 109.325 183.411 107.884 182.345C106.444 181.279 104.799 180.521 103.053 180.119C101.307 179.717 99.4961 179.679 97.7345 180.007C95.9729 180.336 94.2979 181.024 92.814 182.029C91.3302 183.033 90.0693 184.333 89.1101 185.847C88.1509 187.36 87.5139 189.055 87.239 190.826C86.964 192.597 87.057 194.405 87.512 196.139C87.9671 197.872 88.7745 199.493 89.8838 200.9C89.2964 201.636 88.7905 202.434 88.375 203.279L97.6642 208.102L87.7614 204.778C87.0654 206.833 86.8932 209.029 87.2603 211.168C87.6274 213.306 88.5222 215.319 89.8637 217.024C88.3505 218.948 87.4092 221.259 87.1473 223.692C86.8854 226.125 87.3135 228.583 88.3828 230.785C89.452 232.986 91.1192 234.842 93.1936 236.141C95.2681 237.44 97.6661 238.128 100.114 238.128C102.561 238.128 104.959 237.44 107.033 236.141C109.108 234.842 110.775 232.986 111.844 230.785C112.914 228.583 113.342 226.125 113.08 223.692C112.818 221.259 111.877 218.948 110.363 217.024C112.172 214.726 113.155 211.887 113.155 208.962C113.155 206.038 112.172 203.198 110.363 200.9L110.414 200.93Z" fill="#00BFA6"/>
<path opacity="0.03" d="M87.1226 208.992C87.123 211.912 88.1063 214.747 89.9139 217.039C88.4007 218.963 87.4593 221.274 87.1974 223.707C86.9356 226.14 87.3637 228.598 88.4329 230.8C89.5022 233.001 91.1693 234.858 93.2438 236.156C95.3182 237.455 97.7163 238.144 100.164 238.144C102.611 238.144 105.009 237.455 107.084 236.156C109.158 234.858 110.825 233.001 111.894 230.8C112.964 228.598 113.392 226.14 113.13 223.707C112.868 221.274 111.927 218.963 110.414 217.039C112.149 214.837 87.1226 207.529 87.1226 208.992Z" fill="black"/>
<path d="M139.081 212.498C139.451 212.019 139.787 211.514 140.087 210.989L132.935 209.817L140.67 209.873C141.411 208.258 141.815 206.509 141.857 204.733C141.9 202.957 141.58 201.191 140.917 199.542L130.536 204.924L140.092 197.883C139.197 196.33 137.992 194.978 136.552 193.912C135.111 192.846 133.467 192.088 131.72 191.686C129.974 191.284 128.164 191.246 126.402 191.575C124.64 191.903 122.965 192.591 121.481 193.596C119.998 194.601 118.737 195.9 117.778 197.414C116.818 198.928 116.181 200.623 115.906 202.394C115.632 204.165 115.724 205.973 116.18 207.706C116.635 209.44 117.442 211.06 118.551 212.468C117.964 213.204 117.458 214.001 117.042 214.847L126.332 219.67L116.429 216.345C115.733 218.4 115.561 220.597 115.928 222.735C116.295 224.874 117.19 226.887 118.531 228.592C117.018 230.515 116.077 232.826 115.815 235.259C115.553 237.693 115.981 240.151 117.05 242.352C118.119 244.554 119.787 246.41 121.861 247.709C123.936 249.007 126.334 249.696 128.781 249.696C131.228 249.696 133.626 249.007 135.701 247.709C137.775 246.41 139.443 244.554 140.512 242.352C141.581 240.151 142.009 237.693 141.747 235.259C141.485 232.826 140.544 230.515 139.031 228.592C140.839 226.294 141.823 223.454 141.823 220.53C141.823 217.605 140.839 214.766 139.031 212.468L139.081 212.498Z" fill="#00BFA6"/>
<path d="M323.659 223.06C324.028 222.58 324.364 222.076 324.665 221.551L317.513 220.379L325.248 220.434C325.989 218.819 326.393 217.071 326.435 215.294C326.477 213.518 326.157 211.752 325.495 210.104L315.114 215.485L324.67 208.444C323.775 206.892 322.57 205.54 321.129 204.474C319.689 203.408 318.044 202.65 316.298 202.248C314.552 201.846 312.741 201.808 310.98 202.136C309.218 202.465 307.543 203.153 306.059 204.158C304.575 205.162 303.314 206.462 302.355 207.976C301.396 209.489 300.759 211.185 300.484 212.955C300.209 214.726 300.302 216.535 300.757 218.268C301.212 220.001 302.02 221.622 303.129 223.029C302.542 223.765 302.036 224.563 301.62 225.408L310.909 230.231L301.007 226.907C300.311 228.962 300.138 231.158 300.505 233.297C300.872 235.435 301.767 237.448 303.109 239.153C301.596 241.077 300.654 243.388 300.392 245.821C300.131 248.254 300.559 250.712 301.628 252.914C302.697 255.115 304.364 256.972 306.439 258.27C308.513 259.569 310.911 260.258 313.359 260.258C315.806 260.258 318.204 259.569 320.279 258.27C322.353 256.972 324.02 255.115 325.089 252.914C326.159 250.712 326.587 248.254 326.325 245.821C326.063 243.388 325.122 241.077 323.609 239.153C325.417 236.855 326.4 234.016 326.4 231.091C326.4 228.167 325.417 225.327 323.609 223.029L323.659 223.06Z" fill="#00BFA6"/>
<path d="M404.128 224.065C404.497 223.586 404.834 223.082 405.134 222.557L397.982 221.385L405.717 221.44C406.458 219.825 406.862 218.076 406.904 216.3C406.947 214.524 406.627 212.758 405.964 211.11L395.583 216.491L405.139 209.45C404.244 207.898 403.039 206.546 401.599 205.48C400.158 204.414 398.513 203.656 396.767 203.254C395.021 202.852 393.21 202.814 391.449 203.142C389.687 203.471 388.012 204.159 386.528 205.164C385.045 206.168 383.784 207.468 382.824 208.982C381.865 210.495 381.228 212.19 380.953 213.961C380.678 215.732 380.771 217.54 381.226 219.274C381.681 221.007 382.489 222.628 383.598 224.035C383.011 224.771 382.505 225.569 382.089 226.414L391.379 231.237L381.476 227.913C380.78 229.968 380.608 232.164 380.975 234.303C381.342 236.441 382.237 238.454 383.578 240.159C382.065 242.083 381.124 244.394 380.862 246.827C380.6 249.26 381.028 251.718 382.097 253.92C383.166 256.121 384.834 257.977 386.908 259.276C388.982 260.575 391.38 261.263 393.828 261.263C396.275 261.263 398.673 260.575 400.748 259.276C402.822 257.977 404.49 256.121 405.559 253.92C406.628 251.718 407.056 249.26 406.794 246.827C406.532 244.394 405.591 242.083 404.078 240.159C405.886 237.861 406.87 235.022 406.87 232.097C406.87 229.173 405.886 226.333 404.078 224.035L404.128 224.065Z" fill="#00BFA6"/>
<path d="M560.41 220.042C561.913 220.042 563.131 218.445 563.131 216.476C563.131 214.507 561.913 212.91 560.41 212.91C558.908 212.91 557.689 214.507 557.689 216.476C557.689 218.445 558.908 220.042 560.41 220.042Z" fill="#3F3D56"/>
<path d="M560.41 215.687C561.913 215.687 563.131 214.09 563.131 212.121C563.131 210.151 561.913 208.555 560.41 208.555C558.908 208.555 557.689 210.151 557.689 212.121C557.689 214.09 558.908 215.687 560.41 215.687Z" fill="#3F3D56"/>
<path d="M560.41 211.331C561.913 211.331 563.131 209.735 563.131 207.765C563.131 205.796 561.913 204.199 560.41 204.199C558.908 204.199 557.689 205.796 557.689 207.765C557.689 209.735 558.908 211.331 560.41 211.331Z" fill="#3F3D56"/>
<path d="M560.41 206.976C561.913 206.976 563.131 205.379 563.131 203.41C563.131 201.44 561.913 199.844 560.41 199.844C558.908 199.844 557.689 201.44 557.689 203.41C557.689 205.379 558.908 206.976 560.41 206.976Z" fill="#3F3D56"/>
<path d="M560.41 202.62C561.913 202.62 563.131 201.024 563.131 199.054C563.131 197.085 561.913 195.489 560.41 195.489C558.908 195.489 557.689 197.085 557.689 199.054C557.689 201.024 558.908 202.62 560.41 202.62Z" fill="#3F3D56"/>
<path d="M573.391 193.447C573.391 193.643 573.391 193.849 573.391 194.04C573.391 194.231 573.391 194.297 573.391 194.422C573.391 194.548 573.391 194.614 573.391 194.709C573.391 194.805 573.391 194.865 573.391 194.941C573.391 195.016 573.356 195.217 573.336 195.358C573.336 195.413 573.336 195.469 573.336 195.529C573.336 195.68 573.286 195.816 573.255 195.961C573.243 196.046 573.226 196.13 573.205 196.213C573.17 196.399 573.125 196.575 573.074 196.756C573.024 196.937 572.979 197.123 572.924 197.294C572.799 197.712 572.65 198.122 572.476 198.521C572.395 198.723 572.31 198.914 572.214 199.105C572.119 199.296 572.043 199.452 571.953 199.608C571.862 199.764 571.807 199.879 571.732 200.01C571.656 200.141 571.581 200.262 571.495 200.387C571.41 200.513 571.435 200.488 571.4 200.543C571.364 200.599 571.259 200.759 571.188 200.86C571.118 200.961 571.143 200.925 571.113 200.961C571.027 201.091 570.932 201.222 570.831 201.348C570.334 202 569.777 202.605 569.167 203.153C569.036 203.274 568.905 203.385 568.769 203.495L568.724 203.531L568.367 203.817L568.176 203.953C568.06 204.044 567.934 204.129 567.814 204.21C567.244 204.604 566.641 204.948 566.013 205.241C565.85 205.323 565.682 205.395 565.51 205.457C565.349 205.527 565.188 205.593 565.007 205.648C564.826 205.703 564.801 205.734 564.695 205.764L564.514 205.829L564.011 205.97L563.509 206.106C563.446 206.124 563.382 206.137 563.317 206.146L562.89 206.236C562.578 206.302 562.266 206.357 561.949 206.392H561.899C561.788 206.392 561.673 206.423 561.562 206.428C561.432 206.445 561.301 206.455 561.17 206.458H560.913C560.737 206.458 560.556 206.458 560.375 206.458C560.194 206.458 560.023 206.458 559.872 206.458H559.676C559.547 206.455 559.417 206.445 559.289 206.428C559.181 206.425 559.073 206.415 558.967 206.397V206.397C558.64 206.362 558.318 206.322 558.001 206.257C557.83 206.226 557.664 206.186 557.498 206.146C557.46 206.145 557.423 206.136 557.388 206.121C556.683 205.955 555.994 205.731 555.326 205.452C554.965 205.303 554.613 205.135 554.27 204.949C554.109 204.863 553.943 204.773 553.767 204.677L553.415 204.461C553.183 204.32 552.957 204.164 552.736 204.003C552.645 203.938 552.555 203.873 552.464 203.797C552.397 203.753 552.333 203.704 552.273 203.651C552.177 203.571 552.082 203.5 551.986 203.415C551.957 203.399 551.931 203.377 551.911 203.35C551.785 203.249 551.664 203.133 551.544 203.028C551.134 202.65 550.75 202.247 550.392 201.821C550.271 201.68 550.156 201.534 550.045 201.393C549.934 201.252 549.884 201.182 549.814 201.076C549.743 200.971 549.693 200.91 549.638 200.83C549.582 200.749 549.482 200.604 549.406 200.483C549.331 200.362 549.22 200.181 549.13 200.03C548.948 199.728 548.783 199.417 548.627 199.1C548.556 198.954 548.491 198.813 548.43 198.662C548.315 198.411 548.209 198.159 548.114 197.873C548.043 197.692 547.983 197.505 547.928 197.319C547.872 197.133 547.807 196.917 547.757 196.711C547.754 196.703 547.754 196.694 547.757 196.686C547.711 196.505 547.666 196.319 547.631 196.143C547.596 195.966 547.565 195.831 547.545 195.675C547.525 195.519 547.495 195.393 547.475 195.252C547.472 195.215 547.472 195.179 547.475 195.142C547.445 194.976 547.43 194.8 547.415 194.639C547.399 194.478 547.379 194.246 547.374 194.055C547.369 193.864 547.374 193.658 547.374 193.457C547.375 190.537 548.358 187.703 550.166 185.41C549.944 185.128 549.733 184.842 549.542 184.545C549.477 184.449 549.416 184.359 549.361 184.263C549.306 184.168 549.195 183.992 549.119 183.856C549.044 183.72 548.933 183.534 548.843 183.353C548.833 183.339 548.824 183.324 548.818 183.308C548.644 182.98 548.486 182.645 548.345 182.302C548.295 182.181 548.249 182.065 548.204 181.95C548.078 181.613 547.968 181.276 547.867 180.944C547.754 180.548 547.661 180.147 547.591 179.742C547.565 179.621 547.545 179.495 547.53 179.375C547.527 179.365 547.527 179.354 547.53 179.344C547.53 179.224 547.49 179.108 547.475 178.987C547.44 178.701 547.415 178.404 547.399 178.107C547.399 178.022 547.399 177.941 547.399 177.856C547.399 177.695 547.399 177.539 547.399 177.383C547.4 175.962 547.633 174.55 548.088 173.204L557.991 176.528L548.702 171.695C549.119 170.852 549.625 170.056 550.211 169.321C548.768 167.482 547.844 165.289 547.537 162.971C547.229 160.654 547.548 158.296 548.461 156.144C554.461 161.161 560.031 166.67 565.113 172.615C567.745 175.69 570.238 178.875 572.592 182.171C572.137 183.329 571.517 184.415 570.751 185.395L570.711 185.445C572.471 187.739 573.415 190.555 573.391 193.447V193.447Z" fill="#00BFA6"/>
<path opacity="0.03" d="M547.309 177.307C547.31 180.227 548.293 183.062 550.1 185.354C548.587 187.278 547.646 189.589 547.384 192.022C547.122 194.455 547.55 196.913 548.619 199.115C549.689 201.316 551.356 203.173 553.43 204.471C555.505 205.77 557.903 206.459 560.35 206.459C562.798 206.459 565.196 205.77 567.27 204.471C569.345 203.173 571.012 201.316 572.081 199.115C573.15 196.913 573.578 194.455 573.316 192.022C573.055 189.589 572.113 187.278 570.6 185.354C572.335 183.152 547.309 175.844 547.309 177.307Z" fill="black"/>
<path opacity="0.3" d="M330.031 89.7363C324.257 91.6676 318.42 93.396 312.519 94.9216C317.752 92.4706 322.993 90.0817 328.24 87.7548C328.844 88.4086 329.417 89.0724 330.031 89.7363Z" fill="#00BFA6"/>
<path opacity="0.3" d="M180.508 26.6832C183.408 26.5424 186.327 26.4737 189.264 26.477H189.53C185.95 28.8358 182.349 31.099 178.722 33.2214C177.812 33.7243 176.902 34.2776 175.986 34.7855C175.296 35.1778 174.605 35.5617 173.914 35.9373C168.469 38.9046 162.987 41.7898 157.468 44.5928C153.277 46.7185 149.071 48.794 144.85 50.8191C139.334 53.4612 133.785 56.0078 128.202 58.4587C114.663 64.3884 101.004 69.7245 87.2031 74.3062C98.8545 67.2651 110.514 60.3917 122.182 53.6859C130.447 48.9549 138.722 44.2944 147.007 39.7043C147.909 39.2013 148.809 38.6984 149.708 38.1954C155.763 34.8425 161.829 31.5332 167.904 28.2675L169.307 27.5081L180.508 26.6832Z" fill="#00BFA6"/>
<path opacity="0.3" d="M361.414 138.461C362.826 141.633 364.148 144.851 365.382 148.117C364.618 148.484 363.873 148.841 363.089 149.203C345.4 157.457 327.521 164.9 309.501 171.368C320.475 164.216 331.452 157.188 342.433 150.285C348.757 146.305 355.084 142.363 361.414 138.461Z" fill="#00BFA6"/>
<path d="M367.555 384.562C367.464 372.2 365.764 360.014 360.841 348.985C359.989 347.048 359.036 345.157 357.984 343.322C356.448 340.657 354.719 338.108 352.809 335.697C351.325 333.818 349.742 332.02 348.066 330.311C343.922 326.11 339.359 322.345 334.447 319.075C326.274 313.543 317.206 309.087 308.118 305.335C296.836 300.671 285.24 296.805 273.415 293.767C272.014 293.412 270.607 293.063 269.196 292.721C268.758 292.611 268.321 292.51 267.878 292.404L266.455 292.077C265.64 291.886 264.835 291.71 264.02 291.529C261.593 290.996 259.159 290.493 256.718 290.02C252.49 289.216 248.245 288.518 243.983 287.928C234.77 286.661 225.496 285.871 216.216 285.192L211.745 284.87C207.762 284.589 203.779 284.307 199.796 284.025C195.807 283.724 191.824 283.407 187.846 283.02L186.885 282.969L185.019 282.783C183.37 282.612 181.715 282.441 180.065 282.25C176.877 281.888 173.691 281.471 170.51 280.998C166.972 280.471 163.442 279.851 159.918 279.137L159.339 279.016C158.404 278.825 157.468 278.619 156.538 278.413C155.985 278.292 155.437 278.166 154.888 278.035C151.509 277.241 148.156 276.342 144.83 275.34C140.186 273.94 135.624 272.282 131.165 270.376C129.68 269.742 128.211 269.071 126.759 268.364L126.166 268.067C117.898 264.127 110.255 258.99 103.483 252.823L102.915 252.32L101.708 251.164C100.999 250.475 100.305 249.765 99.6207 249.056C98.9367 248.347 98.298 247.673 97.6442 246.969C93.847 242.86 90.2963 238.505 86.6651 234.225C83.5217 230.528 80.3231 226.892 76.8528 223.502C76.2141 222.878 75.5653 222.275 74.9064 221.676C71.9055 218.915 68.7103 216.372 65.3456 214.067C64.8729 213.74 64.3951 213.423 63.9173 213.111C62.033 211.864 60.1 210.691 58.1184 209.591C56.1821 208.515 54.2006 207.509 52.1888 206.573C49.5065 205.326 46.7789 204.204 44.0061 203.209C39.3129 201.532 34.5038 200.199 29.6171 199.22C22.5526 197.777 15.3571 197.072 8.14673 197.118V197.118C6.02434 197.143 3.90195 197.229 1.79465 197.395L1.35709 197.435C1.3923 197.541 1.42751 197.646 1.45265 197.757C1.54717 197.814 1.64453 197.866 1.74435 197.913C1.70412 198.37 1.66891 198.828 1.63371 199.281C1.66019 199.685 1.62972 200.092 1.54318 200.488C1.18107 205.182 1.00001 209.933 1.00001 214.741C0.950018 245.126 8.29278 275.066 22.3949 301.98L22.591 302.352C36.8751 329.435 57.5243 352.642 82.7623 369.977C102.83 383.797 125.403 393.564 149.215 398.73L153.375 399.58C159.121 400.693 164.96 401.531 170.892 402.095C176.927 402.678 183.051 402.971 189.264 402.975C197.899 402.978 206.525 402.39 215.08 401.215H366.846C367.308 395.702 367.595 390.095 367.555 384.562Z" fill="#3F3D56"/>
<path opacity="0.1" d="M289.71 66.4403C287.924 66.102 286.077 66.3034 284.405 67.0187C283.403 67.4648 282.32 67.6954 281.223 67.6954C280.127 67.6954 279.044 67.4648 278.042 67.0187C276.858 66.4994 275.575 66.2436 274.282 66.2688C272.989 66.2939 271.717 66.5996 270.554 67.1646C269.888 67.5148 269.148 67.6994 268.396 67.7027C265.378 67.7027 262.834 64.6449 262.311 60.6113C262.915 60.1697 263.427 59.6145 263.819 58.9768C265.595 56.11 268.346 54.2693 271.449 54.2693C274.552 54.2693 277.268 56.0849 279.048 58.9214C279.578 59.7768 280.318 60.4813 281.199 60.9667C282.08 61.4521 283.072 61.7021 284.078 61.6926H284.153C286.597 61.6775 288.679 63.6138 289.71 66.4403Z" fill="#00BFA6"/>
<path opacity="0.1" d="M299.794 62.3213C298.874 65.4848 296.651 67.7229 294.061 67.7229C293.318 67.7204 292.587 67.5393 291.928 67.1948C290.774 66.6396 289.513 66.3392 288.233 66.314C286.952 66.2888 285.68 66.5395 284.505 67.0489C283.507 67.4904 282.428 67.7199 281.337 67.7229C280.509 67.7206 279.687 67.5865 278.902 67.3256C278.772 67.2903 278.636 67.235 278.505 67.1898C278.374 67.1445 278.259 67.0942 278.138 67.0389C278.109 67.0206 278.076 67.0086 278.042 67.0037C277.915 66.9427 277.784 66.889 277.65 66.8427C277.524 66.7924 277.399 66.7522 277.273 66.7069C275.087 66.0033 272.713 66.1727 270.649 67.1797C269.986 67.5314 269.247 67.7178 268.497 67.7229C268.088 67.723 267.681 67.6637 267.29 67.5468C267.234 67.5468 267.184 67.5167 267.129 67.5066C267.073 67.4966 267.008 67.4714 266.948 67.4463C264.609 66.6064 262.808 63.8955 262.421 60.5309C262.36 60.0454 262.33 59.5566 262.331 59.0673C262.331 54.2844 265.097 50.4118 268.517 50.4118H268.683C269.686 50.4411 270.679 50.2055 271.562 49.7287C272.445 49.2519 273.186 48.5508 273.712 47.696C273.908 47.3708 274.125 47.0584 274.361 46.7605C283.237 51.2666 291.741 56.4699 299.794 62.3213V62.3213Z" fill="#00BFA6"/>
<path opacity="0.1" d="M36.7336 135.519C36.1553 135.407 35.5673 135.353 34.9783 135.358C33.7558 135.365 32.5476 135.622 31.4276 136.112C31.317 136.157 31.2063 136.208 31.0906 136.248C30.1898 136.6 29.2313 136.781 28.2641 136.781C27.4711 136.78 26.6827 136.659 25.9255 136.424C25.7947 136.379 25.6589 136.333 25.5282 136.278C25.3974 136.223 25.2163 136.162 25.0655 136.092L24.6732 135.931L24.296 135.8C22.3288 135.148 20.1966 135.196 18.2607 135.936C19.9372 132.295 21.7276 128.721 23.6321 125.213C24.6068 125.996 25.4403 126.94 26.0965 128.005C26.6275 128.858 27.3689 129.561 28.2496 130.045C29.1303 130.53 30.1207 130.779 31.1258 130.771H31.2013C31.4901 130.771 31.7781 130.8 32.0613 130.856C32.5913 130.959 33.1009 131.148 33.5701 131.415C35.0699 132.373 36.1886 133.824 36.7336 135.519V135.519Z" fill="#00BFA6"/>
<path opacity="0.1" d="M47.2701 128.146C47.2701 132.923 44.4989 136.796 41.084 136.796C40.3411 136.794 39.6097 136.612 38.9515 136.268C37.726 135.66 36.371 135.36 35.0035 135.393C33.8089 135.401 32.6278 135.645 31.5282 136.112C31.3723 136.177 31.2214 136.243 31.0605 136.298C30.1974 136.626 29.2827 136.796 28.3597 136.801C27.6353 136.801 26.9143 136.701 26.2172 136.504L25.9255 136.414C25.7947 136.369 25.6589 136.323 25.5282 136.268C25.3963 136.223 25.267 136.171 25.1409 136.112L25.0453 136.077C24.9146 136.016 24.7889 135.971 24.6531 135.916L24.2759 135.785L23.9288 135.685C22.0309 135.155 20.011 135.27 18.1853 136.011C18.1966 135.98 18.21 135.95 18.2255 135.921C19.902 132.28 21.6924 128.705 23.5969 125.198C25.3873 121.889 27.275 118.638 29.26 115.446C29.8635 114.481 30.472 113.525 31.0906 112.57C32.6244 113.169 33.9749 114.159 35.0085 115.441L33.1326 118.851L36.1049 116.965C36.8164 117.992 37.8364 118.765 39.0169 119.173L38.3027 120.476L39.9675 119.415C40.2997 119.471 40.6363 119.498 40.9733 119.495H41.0538C42.1329 119.507 43.1771 119.879 44.0211 120.551L42.0094 124.248L41.0639 125.973L45.0873 123.428L45.9826 122.86C46.0661 123.003 46.1416 123.151 46.2089 123.302C46.9233 124.816 47.2861 126.472 47.2701 128.146V128.146Z" fill="#00BFA6"/>
<path d="M498.308 245.325C508.249 245.325 516.308 234.775 516.308 221.762C516.308 208.749 508.249 198.199 498.308 198.199C488.367 198.199 480.308 208.749 480.308 221.762C480.308 234.775 488.367 245.325 498.308 245.325Z" fill="#2F2E41"/>
<path d="M498.308 216.526C508.249 216.526 516.308 205.977 516.308 192.964C516.308 179.951 508.249 169.401 498.308 169.401C488.367 169.401 480.308 179.951 480.308 192.964C480.308 205.977 488.367 216.526 498.308 216.526Z" fill="#2F2E41"/>
<path d="M498.308 187.723C508.249 187.723 516.308 177.174 516.308 164.161C516.308 151.148 508.249 140.598 498.308 140.598C488.367 140.598 480.308 151.148 480.308 164.161C480.308 177.174 488.367 187.723 498.308 187.723Z" fill="#2F2E41"/>
<path d="M481.958 125.5C480.849 128.672 480.288 132.008 480.298 135.368C480.247 140.416 481.542 145.386 484.05 149.767C487.339 155.339 492.499 158.93 498.298 158.93C504.097 158.93 509.252 155.339 512.546 149.767C514.96 145.556 516.25 140.795 516.293 135.941C511.178 133.623 505.926 131.621 500.566 129.946C496.844 128.779 493.059 127.773 489.21 126.928L481.958 125.5Z" fill="#2F2E41"/>
<path d="M489.22 126.913C493.066 127.765 496.851 128.771 500.576 129.931C499.827 130.054 499.068 130.116 498.308 130.117C495.007 130.09 491.809 128.963 489.22 126.913V126.913Z" fill="#2F2E41"/>
<path d="M162.85 241.301C172.791 241.301 180.85 230.752 180.85 217.739C180.85 204.725 172.791 194.176 162.85 194.176C152.909 194.176 144.85 204.725 144.85 217.739C144.85 230.752 152.909 241.301 162.85 241.301Z" fill="#3F3D56"/>
<path d="M162.85 212.503C172.791 212.503 180.85 201.954 180.85 188.94C180.85 175.927 172.791 165.378 162.85 165.378C152.909 165.378 144.85 175.927 144.85 188.94C144.85 201.954 152.909 212.503 162.85 212.503Z" fill="#3F3D56"/>
<path d="M162.85 183.7C172.791 183.7 180.85 173.151 180.85 160.137C180.85 147.124 172.791 136.575 162.85 136.575C152.909 136.575 144.85 147.124 144.85 160.137C144.85 173.151 152.909 183.7 162.85 183.7Z" fill="#3F3D56"/>
<path d="M162.85 154.902C172.791 154.902 180.85 144.352 180.85 131.339C180.85 118.326 172.791 107.777 162.85 107.777C152.909 107.777 144.85 118.326 144.85 131.339C144.85 144.352 152.909 154.902 162.85 154.902Z" fill="#3F3D56"/>
<path d="M162.85 126.104C172.791 126.104 180.85 115.554 180.85 102.541C180.85 89.5278 172.791 78.9785 162.85 78.9785C152.909 78.9785 144.85 89.5278 144.85 102.541C144.85 115.554 152.909 126.104 162.85 126.104Z" fill="#3F3D56"/>
<path d="M162.85 103.26C172.791 103.26 180.85 92.7109 180.85 79.6977C180.85 66.6844 172.791 56.1351 162.85 56.1351C152.909 56.1351 144.85 66.6844 144.85 79.6977C144.85 92.7109 152.909 103.26 162.85 103.26Z" fill="#3F3D56"/>
<path d="M155.225 29.55C152.485 31.2939 150.212 33.6797 148.602 36.5005C147.992 37.5279 147.459 38.5987 147.007 39.7042C145.574 43.2341 144.841 47.0093 144.85 50.8191V50.8996C144.798 55.9474 146.093 60.9177 148.602 65.2986C151.891 70.8712 157.051 74.4621 162.85 74.4621C168.649 74.4621 173.804 70.8712 177.098 65.2986C179.558 60.8983 180.85 55.941 180.85 50.8996C180.85 45.8582 179.558 40.9009 177.098 36.5005C176.746 35.9071 176.374 35.3337 175.986 34.7855C173.986 31.8746 171.176 29.6137 167.904 28.2826C167.462 28.1086 167.01 27.9591 166.551 27.835V27.835L155.225 29.55Z" fill="#3F3D56"/>
<path d="M166.546 27.835C167.462 27.7243 168.38 27.6204 169.302 27.5231L180.503 26.6832C180.172 28.9264 179.573 31.1216 178.717 33.2214C178.255 34.3519 177.712 35.4478 177.093 36.5005C173.799 42.0731 168.644 45.664 162.845 45.664C160.998 45.6632 159.17 45.2993 157.463 44.5928C154.33 43.2347 151.641 41.0232 149.703 38.2105C149.316 37.6623 148.944 37.094 148.597 36.5005C147.649 34.8909 146.88 33.1825 146.303 31.4058C149.25 30.7117 152.223 30.0931 155.22 29.55L166.546 27.835Z" fill="#3F3D56"/>
<path d="M47.1746 227.988C57.1158 227.988 65.1747 217.439 65.1747 204.426C65.1747 191.413 57.1158 180.863 47.1746 180.863C37.2335 180.863 29.1746 191.413 29.1746 204.426C29.1746 217.439 37.2335 227.988 47.1746 227.988Z" fill="#3F3D56"/>
<path d="M47.1746 199.185C57.1158 199.185 65.1747 188.636 65.1747 175.623C65.1747 162.609 57.1158 152.06 47.1746 152.06C37.2335 152.06 29.1746 162.609 29.1746 175.623C29.1746 188.636 37.2335 199.185 47.1746 199.185Z" fill="#3F3D56"/>
<path d="M47.1746 170.387C57.1158 170.387 65.1747 159.838 65.1747 146.825C65.1747 133.811 57.1158 123.262 47.1746 123.262C37.2335 123.262 29.1746 133.811 29.1746 146.825C29.1746 159.838 37.2335 170.387 47.1746 170.387Z" fill="#3F3D56"/>
<path d="M65.1746 118.006C65.2251 123.054 63.9301 128.024 61.4227 132.405C58.1284 137.978 52.9733 141.574 47.1745 141.574C42.4821 141.574 38.2122 139.22 35.0034 135.373V135.337C34.2406 134.418 33.5543 133.437 32.9515 132.405C32.6447 131.902 32.358 131.364 32.0864 130.821C30.1443 126.83 29.1446 122.445 29.1644 118.006C29.1644 117.135 29.1996 116.275 29.27 115.426C29.8735 114.461 30.482 113.505 31.1007 112.549C32.3831 110.538 33.7109 108.601 35.0738 106.66C37.9339 102.576 40.9515 98.6148 44.1267 94.7757C45.117 94.552 46.1291 94.439 47.1443 94.4387C52.9432 94.4387 58.0982 98.0297 61.3925 103.607C63.9097 107.986 65.2152 112.956 65.1746 118.006V118.006Z" fill="#3F3D56"/>
<path d="M65.1745 89.2283C65.2231 94.2758 63.9282 99.2454 61.4226 103.627C58.1284 109.2 52.9683 112.786 47.1745 112.786C42.5173 112.786 38.2775 110.477 35.104 106.68C37.964 102.596 40.9816 98.6349 44.1568 94.7958C49.6809 88.1097 55.6635 81.8162 62.0614 75.9608C64.1449 80.0708 65.2124 84.6205 65.1745 89.2283Z" fill="#3F3D56"/>
<path opacity="0.6" d="M196.642 129.549C197.198 129.549 197.648 129.098 197.648 128.543C197.648 127.987 197.198 127.537 196.642 127.537C196.087 127.537 195.636 127.987 195.636 128.543C195.636 129.098 196.087 129.549 196.642 129.549Z" fill="white"/>
<path opacity="0.6" d="M94.5459 130.555C95.1014 130.555 95.5518 130.104 95.5518 129.549C95.5518 128.993 95.1014 128.543 94.5459 128.543C93.9904 128.543 93.54 128.993 93.54 129.549C93.54 130.104 93.9904 130.555 94.5459 130.555Z" fill="white"/>
<path opacity="0.6" d="M310.306 182.86C310.861 182.86 311.312 182.41 311.312 181.854C311.312 181.298 310.861 180.848 310.306 180.848C309.75 180.848 309.3 181.298 309.3 181.854C309.3 182.41 309.75 182.86 310.306 182.86Z" fill="white"/>
<path opacity="0.6" d="M386.752 147.654C387.307 147.654 387.758 147.204 387.758 146.649C387.758 146.093 387.307 145.643 386.752 145.643C386.196 145.643 385.746 146.093 385.746 146.649C385.746 147.204 386.196 147.654 386.752 147.654Z" fill="white"/>
<path d="M433.801 334.968C434.747 328.757 429.275 323.521 423.949 320.192C418.623 316.862 412.401 313.648 410.39 307.679C407.488 299.129 414.71 290.885 420.308 283.799C424.461 278.534 427.974 272.793 430.774 266.699C431.9 264.26 432.916 261.715 433.127 259.04C433.429 255.182 432.036 251.415 430.613 247.809C425.962 235.789 421.027 223.886 415.806 212.101" stroke="#2F2E41" stroke-width="4" stroke-miterlimit="10"/>
<path d="M416.284 225.992C424.062 225.992 430.367 219.687 430.367 211.91C430.367 204.132 424.062 197.827 416.284 197.827C408.507 197.827 402.202 204.132 402.202 211.91C402.202 219.687 408.507 225.992 416.284 225.992Z" fill="#2F2E41"/>
<path d="M462.695 188.277C461.926 184.007 462.308 179.405 460.352 175.547C460.159 175.096 459.852 174.702 459.461 174.406C458.972 174.143 458.421 174.018 457.867 174.044C456.103 173.966 454.335 173.95 452.561 173.993C452.058 173.993 451.485 174.069 451.228 174.496C451.201 174.544 451.177 174.595 451.158 174.647C449.146 172.384 447.597 169.567 445.414 167.475C445.726 167.375 446.038 167.274 446.355 167.189C446.325 166.977 446.284 166.766 446.239 166.56L446.189 166.374C446.154 166.228 446.113 166.087 446.073 165.946C446.033 165.805 446.023 165.81 446.003 165.74C445.983 165.67 445.917 165.473 445.867 165.343L445.781 165.137C445.731 165.006 445.681 164.875 445.621 164.749C445.56 164.624 445.565 164.624 445.535 164.558L445.344 164.156C445.344 164.1 445.289 164.05 445.263 163.995C445.188 163.849 445.118 163.708 445.042 163.572L444.967 163.437L444.71 162.984L444.66 162.898C444.559 162.727 444.459 162.556 444.353 162.396C443.498 160.997 442.553 159.629 441.864 158.206C440.641 155.691 440.239 152.855 439.429 150.159C438.62 147.463 437.211 144.758 434.752 143.485C433.585 142.882 432.011 142.354 431.905 141.026C431.898 140.601 431.985 140.18 432.162 139.794C432.497 138.937 432.906 138.11 433.384 137.324C433.555 137.032 433.746 136.746 433.937 136.469C433.983 136.399 434.033 136.333 434.083 136.263C434.234 136.052 434.39 135.851 434.546 135.649L434.742 135.403C434.903 135.212 435.064 135.026 435.245 134.845L435.441 134.623C435.672 134.377 435.909 134.12 436.155 133.904C436.376 133.729 436.549 133.5 436.658 133.24C436.724 132.982 436.737 132.714 436.698 132.451C436.578 130.313 437.704 128.317 438.957 126.597C440.209 124.876 441.662 123.242 442.372 121.23C442.452 120.999 442.522 120.762 442.583 120.531C442.583 120.451 442.618 120.375 442.633 120.295C442.648 120.214 442.703 119.978 442.734 119.822C442.764 119.666 442.759 119.636 442.774 119.545C442.789 119.455 442.814 119.249 442.829 119.103C442.844 118.957 442.829 118.907 442.829 118.811C442.829 118.716 442.829 118.519 442.829 118.374C442.829 118.228 442.829 118.182 442.829 118.082C442.829 117.981 442.829 117.79 442.829 117.639C442.829 117.488 442.829 117.453 442.829 117.358C442.829 117.262 442.829 117.041 442.789 116.885C442.749 116.729 442.789 116.714 442.764 116.628C442.744 116.447 442.719 116.266 442.688 116.085C442.688 116.025 442.688 115.964 442.688 115.904C442.648 115.653 442.603 115.401 442.553 115.16C442.195 113.575 441.737 112.014 441.18 110.487C440.882 109.547 440.502 108.635 440.043 107.762C440.32 107.711 440.596 107.646 440.878 107.57C440.702 107.249 440.425 106.871 440.269 106.509C441.924 103.914 443.367 101.198 444.092 98.2159C444.539 96.1053 444.802 93.9597 444.876 91.8034C445.294 85.3306 445.706 78.8227 445.173 72.3599C445.173 72.2744 445.173 72.1889 445.173 72.1034C445.37 70.7147 445.383 69.3062 445.213 67.914C444.947 65.2082 444.313 62.4772 442.864 60.1889C441.416 57.9005 439.017 55.8838 436.356 55.6122C435.919 56.1084 435.432 56.5584 434.903 56.955C434.105 56.2514 433.52 55.3385 433.213 54.3196C436.321 53.8319 439.182 52.3375 441.358 50.0661C443.534 47.7947 444.904 44.8718 445.258 41.7462C445.289 41.5098 445.309 41.2735 445.324 41.0371C445.324 40.9365 445.324 40.8409 445.324 40.7454C445.324 40.6498 445.324 40.4738 445.324 40.338V39.9608C445.324 39.8602 445.324 39.7596 445.324 39.654C445.324 39.5484 445.324 39.3673 445.324 39.2215V38.9851C445.324 38.8242 445.324 38.6632 445.284 38.4822C445.284 38.4269 445.284 38.3715 445.284 38.3112C445.284 38.1351 445.243 37.9642 445.213 37.8082V37.6976C445.183 37.5065 445.148 37.3204 445.113 37.1343C445.11 37.1143 445.11 37.094 445.113 37.074C445.072 36.8728 445.027 36.6766 444.977 36.4755C444.639 35.1154 444.107 33.8112 443.398 32.6029C443.98 31.2804 444.363 29.8787 444.534 28.4436C444.564 28.182 444.59 27.9406 444.605 27.669C444.605 27.5031 444.605 27.3371 444.605 27.1661C444.605 27.0806 444.605 27.0001 444.605 26.9197C444.605 26.7034 444.605 26.4922 444.605 26.2759V26.2105C444.494 22.619 443.061 19.1947 440.581 16.5944C440.867 16.1052 441.107 15.5899 441.295 15.0554V15.0554C441.351 14.8995 441.401 14.7436 441.451 14.5827C441.496 14.4318 441.537 14.2809 441.572 14.125C441.572 14.125 441.572 14.125 441.572 14.0848C441.607 13.9439 441.632 13.8031 441.662 13.6573V13.5818C441.693 13.4158 441.718 13.2499 441.738 13.0789C441.758 12.9079 441.773 12.7268 441.783 12.5759C441.783 12.5206 441.783 12.4653 441.783 12.41C441.783 12.3547 441.783 12.1686 441.783 12.0479V11.8668V11.5047C441.783 11.4494 441.783 11.3991 441.783 11.3438C441.657 9.12253 440.699 7.03027 439.1 5.48391C437.5 3.93754 435.377 3.05062 433.152 2.99986C430.928 2.94911 428.767 3.73826 427.098 5.21006C425.43 6.68185 424.377 8.72823 424.15 10.9414C424.04 11.8489 424.067 12.7678 424.231 13.6673C422.049 14.7227 420.167 16.3108 418.761 18.2851C417.355 20.2593 416.468 22.556 416.184 24.9633C416.088 25.7692 416.059 26.5817 416.098 27.3924C414.803 29.4119 414.025 31.7199 413.835 34.1117V34.1117V34.3832C413.835 34.685 413.8 34.9868 413.8 35.2936C413.794 37.5088 414.295 39.6959 415.264 41.6878C416.233 43.6797 417.646 45.4234 419.392 46.7856C420.122 47.9599 421.084 48.973 422.219 49.763C422.421 50.3731 422.573 50.9989 422.672 51.6339C422.757 53.3439 422.249 55.1545 420.957 56.276C420.63 56.5476 420.268 56.779 419.951 57.0355C419.608 56.9432 419.247 56.9519 418.91 57.0606C415.052 58.2727 411.366 60.6717 409.58 64.3532C409.186 65.1871 408.876 66.0581 408.655 66.9534C408.584 67.059 408.509 67.1646 408.443 67.2753C406.086 70.9544 404.389 75.0172 403.429 79.2803C402.926 81.458 402.64 83.7213 401.624 85.7028C401.379 86.1133 401.181 86.5503 401.035 87.0054C400.949 87.7044 400.919 88.409 400.945 89.1127C400.839 90.3852 400.1 91.5117 399.853 92.764C399.702 93.5084 399.733 94.2728 399.602 95.0273C399.37 96.3399 398.661 97.5067 398.209 98.754C397.409 100.952 397.419 103.366 396.831 105.634C396.758 106.001 396.599 106.346 396.368 106.64C395.966 107.088 395.332 107.193 394.809 107.48C394.397 107.738 394.045 108.08 393.775 108.484C393.506 108.888 393.325 109.345 393.245 109.824C393.092 110.787 393.075 111.767 393.194 112.736L393.486 116.533C392.068 116.955 390.655 117.388 389.241 117.82L382.266 119.953C380.254 120.566 378.212 121.2 376.477 122.397C374.877 123.508 373.615 125.04 372.831 126.823C372.036 128.638 371.759 130.635 371.478 132.607C370.678 138.139 369.707 143.671 367.892 148.907C367.751 149.314 367.6 149.722 367.449 150.129C367.298 150.531 367.137 150.929 366.976 151.326L366.871 151.567C366.74 151.889 366.609 152.206 366.468 152.518C366.287 152.92 366.106 153.323 365.91 153.715L382.225 159.182C382.225 159.378 382.266 159.584 382.296 159.82C382.859 163.844 382.588 167.898 383.111 171.891C383.177 172.56 383.329 173.217 383.563 173.847C383.15 174.207 382.852 174.682 382.708 175.21C382.524 176.065 382.495 176.946 382.623 177.811C382.81 179.856 382.995 181.906 383.176 183.961C383.275 184.71 383.283 185.469 383.201 186.22C382.995 187.572 382.225 188.759 381.793 190.057C381.36 191.355 381.391 193.009 382.462 193.834C382.835 194.088 383.267 194.242 383.717 194.283C384.167 194.323 384.619 194.249 385.032 194.065C385.857 193.686 386.584 193.123 387.159 192.421C390.448 188.78 391.917 183.846 394.477 179.636C395.13 178.663 395.713 177.644 396.222 176.588C396.574 175.774 396.795 174.909 397.082 174.074C397.471 172.946 397.942 171.849 398.49 170.79C398.792 170.186 399.959 168.727 399.713 168.049C399.295 166.897 394.814 165.871 393.707 165.534C392.993 165.302 392.199 165.096 391.515 165.433C391.408 165.486 391.308 165.552 391.218 165.629C391.092 163.98 390.961 162.33 390.836 160.686C391.5 160.625 392.158 160.54 392.812 160.434C392.787 159.504 392.767 158.568 392.747 157.628L392.686 155.048C392.641 152.96 392.596 150.868 392.541 148.806C392.529 147.596 392.452 146.387 392.309 145.185C392.053 143.344 391.495 141.554 391.303 139.708C391.572 139.493 391.89 139.347 392.229 139.286V139.286C392.753 139.201 393.285 139.183 393.813 139.23H394.23C396.534 139.301 398.787 138.486 400.839 137.41C402.891 136.333 404.797 134.996 406.839 133.889C407.091 133.753 407.342 133.623 407.609 133.492L407.89 133.351L408.368 133.115L408.765 132.923L408.856 132.878C410.048 132.31 411.25 131.757 412.376 131.138C412.453 131.264 412.537 131.385 412.628 131.5C412.907 131.887 413.296 132.181 413.745 132.342C414.194 132.504 414.681 132.526 415.143 132.405C413.734 135.81 412.075 139.105 411.652 142.786C411.039 148.097 413.161 153.297 415.248 158.206L421.902 173.893C422.636 175.628 423.617 177.574 425.423 177.987C426.549 178.243 427.716 177.816 428.762 177.318C431.78 175.869 434.546 173.797 437.312 171.846C437.351 171.871 437.388 171.9 437.423 171.931C439.937 173.918 441.522 176.699 443.262 179.349L447.929 187.009C447.892 187.395 447.956 187.783 448.115 188.136C448.455 188.769 448.897 189.341 449.423 189.831C452.382 193.02 454.333 197.013 455.03 201.308C455.201 202.394 455.317 203.551 455.956 204.441C457.208 206.176 459.869 206.065 461.75 205.075C462.326 204.804 462.824 204.392 463.198 203.878C463.514 203.318 463.714 202.701 463.787 202.062C464.125 200.479 464.312 198.867 464.345 197.249C464.36 194.206 463.228 191.284 462.695 188.277ZM435.939 47.3439C436.261 47.1276 436.573 46.8913 436.879 46.6448C436.24 48.5457 435.213 50.2927 433.862 51.7748V51.7748C433.545 52.1218 433.208 52.4487 432.856 52.7806C432.856 52.7002 432.856 52.6197 432.856 52.5443C432.816 51.7748 432.856 50.965 432.881 50.1704C434.084 49.4492 435.126 48.4869 435.939 47.3439V47.3439ZM409.525 106.363C409.525 106.318 409.56 106.268 409.58 106.218C409.842 106.415 410.071 106.653 410.259 106.922C410.079 107.32 409.994 107.754 410.011 108.191C410.029 108.628 410.148 109.054 410.36 109.436C410.752 110.1 411.456 110.714 411.3 111.448C411.144 112.182 410.194 112.499 409.414 112.625C408.408 112.786 407.402 112.977 406.397 113.183C406.397 113.183 406.397 113.148 406.397 113.128C406.418 112.285 406.303 111.444 406.055 110.638C407.775 109.929 408.851 108.149 409.525 106.363Z" fill="url(#paint1_linear)"/>
<path d="M440.656 19.2851C441.33 18.1493 441.742 16.8775 441.862 15.5623C441.982 14.2471 441.807 12.9218 441.35 11.6828C440.893 10.4438 440.165 9.32245 439.219 8.40043C438.274 7.47842 437.135 6.77899 435.885 6.35312C434.634 5.92725 433.305 5.78567 431.993 5.93871C430.682 6.09174 429.421 6.53553 428.302 7.23773C427.184 7.93993 426.236 8.88284 425.528 9.99774C424.82 11.1126 424.37 12.3714 424.21 13.6824C424.103 14.5766 424.13 15.4819 424.291 16.3681C422.121 17.4025 420.248 18.9684 418.846 20.9204C417.443 22.8723 416.557 25.147 416.269 27.5332C416.176 28.3276 416.147 29.1282 416.183 29.9272C414.973 31.7884 414.213 33.9066 413.964 36.1131C413.716 38.3196 413.986 40.5536 414.753 42.6374C415.52 44.7212 416.763 46.5971 418.383 48.1161C420.003 49.635 421.954 50.7549 424.083 51.3868C426.212 52.0187 428.458 52.145 430.645 51.7558C432.831 51.3665 434.896 50.4724 436.675 49.1446C438.455 47.8169 439.9 46.092 440.896 44.1074C441.892 42.1228 442.411 39.9331 442.412 37.7127C442.412 37.488 442.412 37.2617 442.412 37.0337C444.18 34.3173 444.971 31.0799 444.655 27.8542C444.338 24.6284 442.934 21.6063 440.671 19.2851H440.656Z" fill="#2F2E41"/>
<g opacity="0.1">
<path opacity="0.1" d="M424.175 14.1149L424.291 14.0545C424.291 13.8986 424.246 13.7427 424.226 13.5868V13.6824C424.19 13.8282 424.185 13.969 424.175 14.1149Z" fill="black"/>
<path opacity="0.1" d="M444.589 28.6397C444.331 30.8094 443.575 32.8902 442.381 34.7202C442.381 34.9448 442.381 35.1712 442.381 35.3992C442.326 39.0475 440.875 42.5362 438.327 45.1478C435.779 47.7594 432.327 49.2956 428.681 49.4405C425.035 49.5854 421.473 48.3281 418.725 45.9269C415.978 43.5257 414.255 40.1633 413.91 36.5308C413.88 36.913 413.86 37.3003 413.86 37.6925C413.824 39.5892 414.167 41.4738 414.868 43.2364C415.57 44.999 416.615 46.6042 417.944 47.9581C419.272 49.3119 420.858 50.3874 422.607 51.1215C424.356 51.8557 426.234 52.2338 428.131 52.2338C430.028 52.2338 431.906 51.8557 433.655 51.1215C435.404 50.3874 436.989 49.3119 438.318 47.9581C439.646 46.6042 440.692 44.999 441.393 43.2364C442.094 41.4738 442.437 39.5892 442.402 37.6925C442.402 37.4679 442.402 37.2416 442.402 37.0136C443.585 35.1892 444.333 33.1175 444.589 30.9582C444.706 30.002 444.723 29.0362 444.64 28.0764C444.64 28.2625 444.63 28.4536 444.589 28.6397Z" fill="black"/>
<path opacity="0.1" d="M441.828 13.5768C441.672 14.7762 441.273 15.9313 440.656 16.9716C440.903 17.2281 441.159 17.4745 441.37 17.7713C441.6 17.1389 441.757 16.4826 441.838 15.8148C441.928 15.0713 441.925 14.3195 441.828 13.5768V13.5768Z" fill="black"/>
</g>
<path d="M383.151 172.389C383.217 173.202 383.438 173.996 383.8 174.727C383.983 175.091 384.25 175.406 384.578 175.647C384.907 175.887 385.288 176.046 385.691 176.11C386.43 176.114 387.155 175.904 387.778 175.507C389.045 174.843 390.368 174.074 391.027 172.801C391.686 171.529 391.58 170.1 391.469 168.717L390.619 157.839C388.562 157.778 386.495 157.783 384.443 157.894C382.391 158.005 382.054 158.483 382.336 160.469C382.899 164.422 382.623 168.436 383.151 172.389Z" fill="#FBBEBE"/>
<path d="M443.448 179.747L448.336 187.648C448.549 188.108 448.931 188.468 449.402 188.654C449.748 188.698 450.1 188.635 450.408 188.473C452.038 187.764 453.285 186.406 454.487 185.093C455.297 184.198 456.137 183.257 456.443 182.075C456.601 181.442 456.594 180.778 456.423 180.148C456.253 179.518 455.924 178.942 455.468 178.474C454.894 177.98 454.276 177.539 453.622 177.157C449.754 174.551 448.009 169.613 444.197 166.917C443.976 166.735 443.707 166.62 443.422 166.585C443.139 166.601 442.864 166.693 442.628 166.852L437.412 169.713C435.154 170.945 435.868 171.091 437.583 172.424C440.128 174.391 441.702 177.132 443.448 179.747Z" fill="#FBBEBE"/>
<path d="M411.079 107.364C410.583 107.772 410.247 108.342 410.131 108.973C410.014 109.604 410.123 110.256 410.44 110.814C410.832 111.468 411.536 112.072 411.381 112.826C411.225 113.58 410.269 113.862 409.49 113.988C402.624 115.079 395.94 117.091 389.282 119.093L382.296 121.195C380.284 121.803 378.232 122.427 376.492 123.609C374.895 124.696 373.631 126.206 372.841 127.969C372.046 129.76 371.769 131.731 371.483 133.668C370.437 140.809 369.099 148.017 365.91 154.489L382.854 160.022C384.495 160.628 386.196 161.057 387.929 161.299C389.58 161.437 391.242 161.357 392.873 161.063C392.767 157.281 392.702 153.383 392.596 149.601C392.587 148.405 392.51 147.211 392.365 146.025C392.113 144.214 391.55 142.449 391.359 140.628C392.138 139.985 393.275 140.125 394.286 140.171C396.599 140.241 398.858 139.436 400.909 138.375C402.961 137.314 404.878 135.996 406.945 134.92C410.35 133.12 414.222 131.902 416.822 129.061C415.5 134.09 412.371 138.506 411.793 143.686C411.215 148.866 413.302 154.047 415.394 158.89L422.063 174.355C422.797 176.065 423.778 177.981 425.584 178.379C426.715 178.635 427.882 178.208 428.933 177.72C435.064 174.843 439.998 169.447 446.536 167.716C446.033 164.473 443.488 161.792 442.035 158.85C440.812 156.37 440.41 153.579 439.595 150.934C438.781 148.288 437.377 145.612 434.913 144.355C433.746 143.762 432.167 143.244 432.056 141.931C432.051 141.511 432.14 141.095 432.318 140.714C433.198 138.506 434.561 136.523 436.306 134.91C436.523 134.735 436.695 134.511 436.809 134.256C436.875 134.002 436.889 133.737 436.849 133.477C436.724 131.369 437.855 129.398 439.112 127.708C440.37 126.018 441.823 124.404 442.532 122.417C443.75 118.997 442.532 115.245 441.335 111.825C440.833 110.442 440.33 109.014 439.324 107.943C437.755 106.263 435.3 105.78 433.022 105.528C425.619 104.739 416.928 102.803 411.079 107.364Z" fill="#2F2E41"/>
<g opacity="0.1">
<path opacity="0.1" d="M439.087 122.327C437.825 124.021 436.698 125.988 436.824 128.095C436.864 128.355 436.85 128.62 436.784 128.875C436.67 129.131 436.498 129.356 436.281 129.534C434.535 131.146 433.172 133.129 432.293 135.338C432.115 135.718 432.025 136.134 432.031 136.555C432.101 137.374 432.75 137.887 433.54 138.3C434.303 137.055 435.234 135.921 436.306 134.93C436.523 134.755 436.695 134.531 436.809 134.276C436.875 134.022 436.889 133.757 436.849 133.497C436.723 131.389 437.855 129.418 439.112 127.728C440.37 126.038 441.823 124.424 442.532 122.437C443.143 120.497 443.206 118.426 442.713 116.452C442.658 116.648 442.598 116.845 442.532 117.036C441.798 119.012 440.344 120.632 439.087 122.327Z" fill="black"/>
<path opacity="0.1" d="M410.309 108.385C410.557 108.339 410.789 108.227 410.98 108.062C411.171 107.897 411.314 107.684 411.395 107.445C411.41 107.348 411.41 107.25 411.395 107.153C411.29 107.233 411.184 107.304 411.079 107.389C410.742 107.651 410.477 107.993 410.309 108.385V108.385Z" fill="black"/>
<path opacity="0.1" d="M387.928 155.913C386.197 155.665 384.496 155.237 382.854 154.635L367.897 149.731C367.318 151.352 366.647 152.937 365.885 154.479L382.829 160.011C384.469 160.618 386.171 161.046 387.903 161.289C389.555 161.426 391.217 161.347 392.847 161.053C392.797 159.277 392.757 157.472 392.716 155.671C391.138 155.958 389.528 156.039 387.928 155.913Z" fill="black"/>
<path opacity="0.1" d="M428.903 172.323C427.852 172.826 426.685 173.239 425.553 172.987C423.743 172.58 422.762 170.659 422.033 168.964L415.364 153.499C413.9 150.099 412.417 146.558 411.873 142.937C411.833 143.193 411.793 143.44 411.763 143.701C411.149 148.937 413.272 154.062 415.364 158.905L422.033 174.37C422.767 176.08 423.748 177.997 425.553 178.394C426.685 178.65 427.852 178.223 428.903 177.735C435.034 174.858 439.967 169.462 446.506 167.732C446.254 166.042 445.429 164.503 444.494 162.999C438.901 165.177 434.39 169.769 428.903 172.323Z" fill="black"/>
<path opacity="0.1" d="M416.812 123.674C414.212 126.516 410.339 127.728 406.935 129.529C404.893 130.61 402.982 131.928 400.899 132.989C398.817 134.05 396.589 134.85 394.276 134.784C393.27 134.754 392.128 134.593 391.349 135.237C391.51 136.922 391.997 138.551 392.274 140.221C392.941 140.131 393.616 140.118 394.286 140.181C396.599 140.251 398.857 139.446 400.909 138.385C402.961 137.324 404.878 136.006 406.945 134.93C409.188 133.743 411.632 132.808 413.785 131.5C414.861 128.93 416.098 126.395 416.812 123.674Z" fill="black"/>
</g>
<path d="M422.757 53.8268C422.843 55.5116 422.335 57.3171 421.037 58.3984C420.62 58.7455 420.137 59.012 419.734 59.3741C419.379 59.7396 419.107 60.1778 418.938 60.6585C418.769 61.1392 418.706 61.6509 418.754 62.1583C418.802 62.6657 418.959 63.1567 419.215 63.5973C419.471 64.0379 419.82 64.4176 420.237 64.7103C421.58 65.5351 423.295 65.3138 424.849 65.0422C426.915 64.7499 428.94 64.22 430.884 63.463C432.848 62.692 434.519 61.3232 435.662 59.5502C433.967 58.6097 433.047 56.6231 432.941 54.6918C432.836 52.7605 433.369 50.5526 432.142 49.0489C430.915 47.5451 428.772 47.5954 426.987 48.0983C426.081 48.3498 425.206 48.6918 424.301 48.9382C423.843 49.0589 422.324 49.064 422.028 49.4009C421.454 50.0246 422.702 52.846 422.757 53.8268Z" fill="#FBBEBE"/>
<path opacity="0.1" d="M422.757 53.8268C422.843 55.5116 422.335 57.3171 421.037 58.3984C420.62 58.7455 420.137 59.012 419.734 59.3741C419.379 59.7396 419.107 60.1778 418.938 60.6585C418.769 61.1392 418.706 61.6509 418.754 62.1583C418.802 62.6657 418.959 63.1567 419.215 63.5973C419.471 64.0379 419.82 64.4176 420.237 64.7103C421.58 65.5351 423.295 65.3138 424.849 65.0422C426.915 64.7499 428.94 64.22 430.884 63.463C432.848 62.692 434.519 61.3232 435.662 59.5502C433.967 58.6097 433.047 56.6231 432.941 54.6918C432.836 52.7605 433.369 50.5526 432.142 49.0489C430.915 47.5451 428.772 47.5954 426.987 48.0983C426.081 48.3498 425.206 48.6918 424.301 48.9382C423.843 49.0589 422.324 49.064 422.028 49.4009C421.454 50.0246 422.702 52.846 422.757 53.8268Z" fill="black"/>
<path d="M427.947 53.716C433.486 53.716 437.976 49.2261 437.976 43.6875C437.976 38.1489 433.486 33.6589 427.947 33.6589C422.409 33.6589 417.919 38.1489 417.919 43.6875C417.919 49.2261 422.409 53.716 427.947 53.716Z" fill="#FBBEBE"/>
<path d="M396.308 120.627C396.128 121.42 395.808 122.175 395.362 122.855C394.196 124.934 393.774 127.348 394.165 129.7C394.379 130.865 394.875 131.96 395.611 132.889C396.347 133.817 397.299 134.551 398.385 135.026C399.32 135.398 400.482 135.493 401.257 134.845C399.919 133.104 399.848 130.726 399.929 128.528C399.905 128.118 400.003 127.71 400.21 127.356C400.265 127.271 400.336 127.199 400.42 127.143C400.504 127.087 400.598 127.049 400.697 127.031C400.796 127.013 400.898 127.016 400.996 127.039C401.094 127.062 401.186 127.105 401.267 127.165C401.234 128.547 401.502 129.92 402.051 131.188C402.262 131.691 402.625 132.194 403.158 132.194C403.922 132.194 404.128 131.138 404.098 130.374C403.982 127.265 403.827 124.026 402.328 121.296C401.78 120.29 401.05 119.364 400.819 118.243C400.81 117.854 400.676 117.478 400.437 117.171C400.272 117.042 400.079 116.952 399.873 116.91C399.008 116.663 396.966 115.904 396.252 116.714C395.538 117.524 396.423 119.591 396.308 120.627Z" fill="#FBBEBE"/>
<path d="M411.174 67.3456C410.028 67.2199 409.117 68.271 408.489 69.2417C406.14 72.8616 404.45 76.8678 403.495 81.0758C402.992 83.2233 402.705 85.4513 401.684 87.4027C401.442 87.8095 401.245 88.2412 401.096 88.6902C401.01 89.379 400.98 90.0736 401.005 90.7673C400.899 92.0196 400.16 93.1311 399.909 94.3683C399.763 95.1026 399.793 95.8772 399.662 96.6014C399.431 97.8939 398.722 99.0406 398.264 100.273C397.464 102.44 397.474 104.799 396.886 107.057C396.813 107.425 396.652 107.77 396.418 108.063C396.021 108.501 395.382 108.611 394.859 108.888C394.449 109.14 394.097 109.477 393.827 109.876C393.558 110.275 393.376 110.727 393.295 111.202C393.141 112.151 393.122 113.118 393.24 114.073L393.702 120.003C394.175 119.807 394.487 119.269 394.884 118.937C395.609 118.333 396.675 118.469 397.6 118.64L398.953 118.881C400.336 119.133 401.84 119.455 402.725 120.541C403.429 119.44 403.027 117.815 404.108 117.081C404.465 116.845 404.898 116.764 405.27 116.578C405.619 116.351 405.909 116.043 406.114 115.681C406.32 115.318 406.436 114.912 406.452 114.496C406.473 113.663 406.358 112.832 406.11 112.036C407.845 111.307 408.926 109.547 409.63 107.792C410.374 105.668 410.915 103.479 411.245 101.254C412.809 92.4371 414.262 83.5603 414.388 74.5979C414.482 73.0996 414.312 71.5963 413.885 70.157C413.377 68.7186 412.663 67.5166 411.174 67.3456Z" fill="#FF6F61"/>
<path opacity="0.1" d="M411.174 67.3456C410.028 67.2199 409.117 68.271 408.489 69.2417C406.14 72.8616 404.45 76.8678 403.495 81.0758C402.992 83.2233 402.705 85.4513 401.684 87.4027C401.442 87.8095 401.245 88.2412 401.096 88.6902C401.01 89.379 400.98 90.0736 401.005 90.7673C400.899 92.0196 400.16 93.1311 399.909 94.3683C399.763 95.1026 399.793 95.8772 399.662 96.6014C399.431 97.8939 398.722 99.0406 398.264 100.273C397.464 102.44 397.474 104.799 396.886 107.057C396.813 107.425 396.652 107.77 396.418 108.063C396.021 108.501 395.382 108.611 394.859 108.888C394.449 109.14 394.097 109.477 393.827 109.876C393.558 110.275 393.376 110.727 393.295 111.202C393.141 112.151 393.122 113.118 393.24 114.073L393.702 120.003C394.175 119.807 394.487 119.269 394.884 118.937C395.609 118.333 396.675 118.469 397.6 118.64L398.953 118.881C400.336 119.133 401.84 119.455 402.725 120.541C403.429 119.44 403.027 117.815 404.108 117.081C404.465 116.845 404.898 116.764 405.27 116.578C405.619 116.351 405.909 116.043 406.114 115.681C406.32 115.318 406.436 114.912 406.452 114.496C406.473 113.663 406.358 112.832 406.11 112.036C407.845 111.307 408.926 109.547 409.63 107.792C410.374 105.668 410.915 103.479 411.245 101.254C412.809 92.4371 414.262 83.5603 414.388 74.5979C414.482 73.0996 414.312 71.5963 413.885 70.157C413.377 68.7186 412.663 67.5166 411.174 67.3456Z" fill="black"/>
<path d="M436.457 57.7496C434.799 59.4786 432.683 60.6998 430.356 61.2702C428.048 61.84 425.69 62.1886 423.315 62.3113C422.583 62.4335 421.832 62.3677 421.132 62.1201C420.458 61.8184 419.945 61.0187 420.222 60.3347C420.337 60.1271 420.414 59.9006 420.448 59.6658C420.448 59.0573 419.538 59.007 418.94 59.188C415.077 60.38 411.395 62.7438 409.595 66.37C408.589 68.4219 408.257 70.7254 407.935 72.9836C407.1 78.9283 406.261 85.0037 407.387 90.8981C407.986 94.0415 409.142 97.1094 409.213 100.308C409.253 102.104 408.951 103.889 408.966 105.684C408.912 106.312 409.08 106.938 409.439 107.455C409.716 107.777 410.138 107.983 410.329 108.36C410.651 108.994 410.219 109.869 410.646 110.437C411.149 111.136 412.271 110.633 412.99 110.14C416.629 107.667 421.025 106.559 425.402 107.012C430.658 107.581 435.878 110.377 440.993 108.979C440.728 108.598 440.5 108.192 440.314 107.767C437.8 99.4128 437.945 90.0784 441.748 82.2225C443.05 79.5368 444.765 76.9769 445.268 74.0397C445.471 72.6635 445.488 71.2662 445.319 69.8855C445.052 67.2149 444.413 64.5242 442.965 62.266C441.516 60.0078 439.127 58.0112 436.457 57.7496Z" fill="#FF6F61"/>
<path d="M412.195 123.207C411.789 124.298 411.593 125.457 411.617 126.622C411.579 127.736 411.635 128.851 411.783 129.956C411.868 130.899 412.205 131.803 412.759 132.571C413.042 132.953 413.432 133.242 413.88 133.4C414.328 133.559 414.813 133.58 415.273 133.462C415.634 133.312 415.957 133.083 416.218 132.793C416.479 132.502 416.672 132.157 416.782 131.782C416.998 131.034 417.156 130.271 417.255 129.498C417.697 127.22 418.889 125.083 418.915 122.764C418.929 122.49 418.885 122.215 418.784 121.959C418.351 121.004 416.219 119.948 415.178 120.099C413.87 120.3 412.668 122.11 412.195 123.207Z" fill="#FBBEBE"/>
<path opacity="0.1" d="M441.134 66.204C440.938 68.2157 442.864 69.6994 443.649 71.5552C443.953 72.4212 444.122 73.3286 444.152 74.2459C444.69 80.6181 444.272 87.0306 443.855 93.4178C443.785 95.5456 443.525 97.6629 443.081 99.7448C442.004 104.11 439.354 107.887 436.759 111.559C436.367 112.156 435.913 112.711 435.406 113.213C434.645 113.836 433.798 114.344 432.891 114.722L423.969 119.063C422.853 119.555 421.792 120.166 420.805 120.883C419.659 121.779 418.758 122.95 418.185 124.288C416.46 123.408 414.665 122.613 412.94 121.733C412.532 121.527 412.08 121.23 412.014 120.808C411.919 120.204 412.547 119.802 412.98 119.349C413.79 118.55 414.041 117.363 414.489 116.332C415.922 112.892 419.518 110.694 420.826 107.203C421.329 105.865 421.479 104.352 422.365 103.225C422.871 102.658 423.442 102.152 424.065 101.716C425.437 100.551 426.696 99.2597 427.826 97.8588C428.335 97.3318 428.752 96.7232 429.059 96.0582C429.451 95.0524 429.335 93.961 429.355 92.8998C429.421 89.4195 430.995 86.1705 431.961 82.8411C432.866 79.6927 433.243 76.3834 434.435 73.3306C435.627 70.2778 437.961 67.0338 441.134 66.204Z" fill="black"/>
<path d="M442.291 66.204C442.095 68.2157 444.021 69.6994 444.806 71.5552C445.11 72.4212 445.279 73.3286 445.309 74.2459C445.847 80.6181 445.429 87.0306 445.012 93.4178C444.938 95.5425 444.675 97.6564 444.227 99.7347C443.151 104.1 440.501 107.877 437.905 111.549C437.514 112.146 437.06 112.701 436.553 113.203C435.792 113.826 434.945 114.334 434.038 114.712L425.136 119.027C424.02 119.52 422.959 120.13 421.972 120.848C420.826 121.744 419.925 122.915 419.352 124.253C417.627 123.373 415.832 122.578 414.107 121.698C413.699 121.492 413.247 121.195 413.181 120.773C413.086 120.169 413.714 119.767 414.147 119.314C414.956 118.514 415.208 117.327 415.656 116.296C417.089 112.856 420.685 110.658 421.993 107.168C422.496 105.83 422.646 104.316 423.532 103.19C424.038 102.623 424.609 102.117 425.231 101.681C426.604 100.515 427.865 99.2234 428.998 97.8236C429.506 97.2967 429.921 96.688 430.226 96.023C430.618 95.0172 430.502 93.9258 430.522 92.8646C430.588 89.3843 432.162 86.1353 433.128 82.8059C434.033 79.6575 434.41 76.3482 435.602 73.2954C436.794 70.2426 439.118 67.0338 442.291 66.204Z" fill="#FF6F61"/>
<path d="M432.922 28.192C429.833 27.8108 426.704 28.4577 424.02 30.0327C424.412 30.0327 424.809 30.073 425.211 30.1233C428.179 30.4812 430.959 31.7619 433.159 33.7848C435.36 35.8076 436.87 38.4704 437.475 41.3974C438.081 44.3243 437.752 47.3675 436.535 50.0976C435.319 52.8276 433.275 55.1066 430.693 56.6129C434.365 56.7362 437.943 55.4384 440.682 52.9897C443.421 50.5411 445.11 47.1304 445.397 43.4678C445.684 39.8051 444.547 36.1729 442.223 33.3274C439.9 30.4819 436.568 28.6424 432.922 28.192V28.192Z" fill="#2F2E41"/>
<path d="M437.312 36.1234C438.01 37.7093 438.049 39.5073 437.422 41.1226C437.357 40.9154 437.28 40.7122 437.191 40.514C435.426 36.5861 429.994 34.9817 425.055 36.8828C422.143 38.0144 420.056 40.1267 419.191 42.4704C417.934 38.6783 420.489 34.3178 425.176 32.4972C430.115 30.576 435.536 32.2005 437.312 36.1234Z" fill="#2F2E41"/>
<g opacity="0.1">
<path opacity="0.1" d="M437.337 40.8108C437.107 38.0538 436.082 35.4228 434.385 33.2373C432.689 31.0518 430.395 29.4057 427.781 28.4989C426.455 28.8196 425.182 29.3277 423.999 30.0077C424.391 30.0077 424.789 30.0479 425.191 30.0982C428.063 30.4424 430.762 31.6512 432.931 33.5643C435.1 35.4774 436.637 38.0046 437.337 40.8108V40.8108Z" fill="black"/>
<path opacity="0.1" d="M439.65 30.395C439.421 27.6383 438.396 25.0075 436.7 22.8226C435.003 20.6378 432.709 18.9929 430.095 18.0881C428.767 18.4044 427.493 18.9127 426.312 19.5969C426.705 19.5969 427.102 19.6372 427.504 19.6875C430.376 20.0306 433.075 21.2384 435.244 23.1507C437.413 25.0629 438.95 27.5894 439.65 30.395V30.395Z" fill="black"/>
<path opacity="0.1" d="M439.711 14.8442C439.574 13.1812 438.958 11.5937 437.936 10.2742C436.915 8.95476 435.533 7.96004 433.957 7.41077C433.153 7.61596 432.384 7.93791 431.674 8.36635C431.91 8.36635 432.152 8.36634 432.393 8.41664C434.119 8.6247 435.741 9.34994 437.047 10.4971C438.353 11.6442 439.282 13.1596 439.711 14.8442V14.8442Z" fill="black"/>
<path opacity="0.1" d="M445.047 38.8744C445.331 42.3005 444.367 45.7139 442.334 48.4862C440.301 51.2585 437.335 53.2032 433.982 53.9625C433.021 55.0088 431.909 55.9056 430.683 56.623C432.896 56.7052 435.097 56.2709 437.113 55.3545C439.129 54.4382 440.903 53.0649 442.296 51.3436C443.689 49.6223 444.662 47.6002 445.138 45.4376C445.613 43.275 445.579 41.0314 445.037 38.8844L445.047 38.8744Z" fill="black"/>
</g>
<path opacity="0.1" d="M482.31 36.7067C480.321 36.332 478.266 36.5561 476.405 37.3505C475.29 37.8493 474.082 38.1071 472.86 38.1071C471.638 38.1071 470.429 37.8493 469.314 37.3505C467.995 36.7728 466.567 36.4881 465.127 36.5159C463.687 36.5437 462.271 36.8833 460.975 37.5114C460.236 37.9036 459.413 38.1106 458.576 38.1149C455.197 38.1149 452.385 34.7101 451.802 30.2138C452.477 29.7211 453.05 29.1029 453.492 28.3932C455.473 25.1995 458.521 23.1526 461.986 23.1526C465.451 23.1526 468.469 25.1643 470.451 28.3379C471.043 29.29 471.871 30.0736 472.854 30.6136C473.837 31.1535 474.942 31.4315 476.063 31.4209H476.154C478.819 31.4058 481.148 33.5634 482.31 36.7067Z" fill="#00BFA6"/>
<path opacity="0.1" d="M492.579 22.6095L487.118 26.0747L490.432 20.0395C489.494 19.287 488.33 18.8709 487.128 18.8576H487.042C486.663 18.8664 486.284 18.8394 485.911 18.7771L484.055 19.9339L484.849 18.4905C483.538 18.0318 482.404 17.1712 481.61 16.0311L478.286 18.1535L480.378 14.3463C478.442 12.0227 475.852 10.5944 472.955 10.5944C469.51 10.5944 466.417 12.6413 464.455 15.84C463.868 16.7932 463.039 17.5743 462.052 18.1041C461.066 18.634 459.957 18.894 458.837 18.8576H458.671C454.869 18.8576 451.781 23.1728 451.781 28.4938C451.781 33.8149 454.869 38.1301 458.671 38.1301C459.508 38.1282 460.332 37.921 461.07 37.5266C462.366 36.8985 463.783 36.5589 465.222 36.5311C466.662 36.5033 468.09 36.788 469.409 37.3656C470.531 37.8666 471.746 38.127 472.975 38.1301C474.188 38.1286 475.387 37.8733 476.496 37.3807C477.804 36.8141 479.219 36.5352 480.645 36.563C482.07 36.5907 483.473 36.9245 484.759 37.5417C485.491 37.9256 486.306 38.1274 487.133 38.1301C490.94 38.1301 494.023 33.8149 494.023 28.4938C494.042 26.4425 493.546 24.4191 492.579 22.6095V22.6095Z" fill="#00BFA6"/>
<path opacity="0.1" d="M524.053 101.344C521.213 100.805 518.276 101.126 515.619 102.264C514.025 102.976 512.3 103.343 510.554 103.343C508.809 103.343 507.084 102.976 505.49 102.264C503.606 101.439 501.566 101.032 499.51 101.072C497.453 101.112 495.43 101.598 493.58 102.496C492.524 103.057 491.346 103.352 490.15 103.356C485.322 103.356 481.304 98.4925 480.469 92.075C481.433 91.3689 482.252 90.4845 482.883 89.4698C485.714 84.9082 490.1 81.9811 495.024 81.9811C499.947 81.9811 504.278 84.873 507.094 89.3893C507.942 90.7554 509.128 91.8789 510.538 92.6509C511.948 93.4229 513.534 93.8171 515.141 93.795H515.267C519.079 93.7699 522.409 96.8529 524.053 101.344Z" fill="#00BFA6"/>
<path opacity="0.1" d="M538.739 81.2015L530.934 86.1554L535.671 77.5351C534.327 76.4653 532.666 75.8726 530.949 75.8502H530.823C530.281 75.8556 529.739 75.8152 529.204 75.7295L526.558 77.4043L527.695 75.3423C525.819 74.6875 524.199 73.4549 523.068 71.8217L518.33 74.8393L521.348 69.4026C518.576 66.0782 514.845 64.0363 510.741 64.0363C505.817 64.0363 501.431 66.9684 498.6 71.53C497.763 72.8997 496.576 74.0221 495.162 74.7821C493.748 75.5422 492.157 75.9125 490.553 75.8552H490.286C484.85 75.8552 480.444 82.0212 480.444 89.6206C480.444 97.22 484.85 103.386 490.286 103.386C491.482 103.382 492.659 103.089 493.716 102.531C495.566 101.631 497.589 101.144 499.645 101.103C501.702 101.062 503.742 101.469 505.626 102.295C507.218 103.01 508.943 103.382 510.688 103.386C512.433 103.39 514.16 103.027 515.755 102.32C517.625 101.51 519.647 101.111 521.684 101.15C523.721 101.189 525.727 101.665 527.564 102.546C528.61 103.094 529.773 103.382 530.954 103.386C536.39 103.386 540.796 97.225 540.796 89.6206C540.828 86.686 540.121 83.7907 538.739 81.2015V81.2015Z" fill="#00BFA6"/>
<path opacity="0.1" d="M349.344 73.4211C351.332 73.0464 353.387 73.2704 355.248 74.0648C356.363 74.5639 357.57 74.8218 358.791 74.8218C360.013 74.8218 361.22 74.5639 362.335 74.0648C363.654 73.4872 365.082 73.2025 366.522 73.2303C367.961 73.258 369.378 73.5977 370.673 74.2258C371.413 74.6174 372.236 74.8244 373.072 74.8293C376.452 74.8293 379.268 71.4244 379.852 66.9282C379.176 66.4369 378.602 65.8184 378.162 65.1075C376.18 61.9139 373.133 59.8669 369.662 59.8669C366.192 59.8669 363.185 61.8787 361.203 65.0522C360.607 66.0045 359.775 66.787 358.789 67.3244C357.802 67.8617 356.693 68.1358 355.57 68.1201H355.485C352.809 68.1201 350.475 70.2777 349.344 73.4211Z" fill="#00BFA6"/>
<path opacity="0.1" d="M339.043 59.3238L344.505 62.789L341.186 56.7538C342.125 56.002 343.288 55.5859 344.49 55.5719H344.581C344.96 55.5806 345.339 55.5537 345.712 55.4914L347.563 56.6632L346.769 55.2198C348.082 54.7615 349.217 53.9009 350.013 52.7604L353.327 54.8627L351.23 51.0555C353.171 48.7319 355.756 47.3036 358.658 47.3036C362.103 47.3036 365.196 49.3505 367.158 52.5492C367.745 53.5028 368.574 54.2841 369.56 54.8141C370.547 55.344 371.656 55.6037 372.775 55.5668H372.956C376.764 55.5668 379.847 59.882 379.847 65.2031C379.847 70.5241 376.764 74.8393 372.956 74.8393C372.12 74.8363 371.296 74.6291 370.557 74.2358C369.262 73.6077 367.845 73.2681 366.406 73.2403C364.966 73.2125 363.538 73.4972 362.219 74.0749C361.098 74.5759 359.885 74.8363 358.658 74.8393C357.445 74.8388 356.246 74.5835 355.137 74.09C353.828 73.5232 352.412 73.2443 350.986 73.272C349.559 73.2998 348.155 73.6336 346.869 74.2509C346.137 74.6354 345.322 74.8372 344.495 74.8393C340.693 74.8393 337.605 70.5241 337.605 65.2031C337.585 63.1538 338.08 61.1323 339.043 59.3238V59.3238Z" fill="#00BFA6"/>
<rect x="356" y="183" width="155" height="43" fill="#C4C4C4"/>
<rect x="-7" y="182" width="605" height="35" fill="#F1F3F4"/>
</g>
<path d="M394.763 166.097C394.049 165.871 393.254 165.67 392.57 165.996C392.254 166.19 391.986 166.453 391.789 166.766C391.591 167.079 391.467 167.434 391.428 167.802C391.292 168.526 391.308 169.281 391.106 169.99C390.764 171.192 389.854 172.127 388.974 173.007C388.616 173.43 388.153 173.751 387.631 173.938C386.927 174.119 386.178 173.792 385.458 173.938C385.041 174.044 384.66 174.263 384.359 174.571C384.057 174.878 383.846 175.263 383.748 175.683C383.559 176.523 383.53 177.392 383.663 178.243L384.216 184.308C384.307 185.048 384.307 185.796 384.216 186.536C384.01 187.869 383.235 189.051 382.808 190.318C382.38 191.586 382.401 193.23 383.477 194.045C383.853 194.295 384.286 194.447 384.736 194.486C385.185 194.526 385.638 194.452 386.052 194.272C386.875 193.898 387.604 193.345 388.184 192.652C391.479 189.061 392.947 184.193 395.507 180.048C396.163 179.085 396.749 178.077 397.262 177.031C397.609 176.221 397.836 175.371 398.117 174.516C398.512 173.406 398.984 172.326 399.531 171.282C399.837 170.684 400.999 169.271 400.758 168.577C400.365 167.455 395.874 166.449 394.763 166.097Z" fill="#2F2E41"/>
<path d="M454.139 182.825C453.4 184.215 452.165 185.276 450.679 185.797C450.252 185.916 449.854 186.123 449.512 186.406C449.284 186.684 449.143 187.023 449.106 187.381C449.07 187.738 449.139 188.099 449.306 188.417C449.65 189.039 450.093 189.6 450.619 190.077C453.576 193.206 455.532 197.146 456.237 201.393C456.408 202.464 456.523 203.601 457.167 204.481C458.419 206.191 461.085 206.081 462.966 205.105C463.542 204.842 464.042 204.437 464.419 203.928C464.734 203.377 464.935 202.768 465.008 202.138C465.346 200.577 465.533 198.987 465.566 197.39C465.531 194.372 464.399 191.49 463.856 188.523C463.087 184.313 463.474 179.777 461.512 175.975C461.318 175.527 461.009 175.139 460.617 174.848C460.127 174.59 459.577 174.467 459.023 174.491C457.253 174.416 455.477 174.401 453.707 174.446C453.204 174.446 452.625 174.516 452.369 174.949C452.113 175.381 452.339 175.955 452.57 176.392C453.667 178.535 455.447 180.25 454.139 182.825Z" fill="#2F2E41"/>
</g>
<defs>
<linearGradient id="paint0_linear" x1="299.744" y1="403" x2="299.744" y2="26.472" gradientUnits="userSpaceOnUse">
<stop stop-color="#00BFA6"/>
<stop offset="1" stop-color="#3F3D56"/>
</linearGradient>
<linearGradient id="paint1_linear" x1="415.153" y1="205.809" x2="415.153" y2="3.00005" gradientUnits="userSpaceOnUse">
<stop stop-color="#808080" stop-opacity="0.25"/>
<stop offset="0.54" stop-color="#808080" stop-opacity="0.12"/>
<stop offset="1" stop-color="#808080" stop-opacity="0.1"/>
</linearGradient>
<clipPath id="clip0">
<rect width="599" height="217" fill="white"/>
</clipPath>
<clipPath id="clip1">
<rect width="597.488" height="400" fill="white" transform="translate(1 3)"/>
</clipPath>
</defs>
</svg>
